# xmcd CD database file
#
# Track frame offsets:
#	150
#	11961
#	23599
#	36051
#	48973
#	61092
#	73141
#	86790
#	99045
#	111203
#	125650
#	140642
#	152013
#	163493
#	175583
#	186832
#	197225
#	210847
#	224315
#	236917
#	247875
#	259883
#	272216
#	282981
#	294230
#
# Disc length: 4068 seconds
#
# Revision: 0
# Processed by: cddbd v1.5.2PL0 Copyright (c) Steve Scherf et al.
# Submitted via: CDex 1.51
#
DISCID=710fe219
DTITLE=Earl Bostic - Earl Bostic: The Very Best
DYEAR=1900
DGENRE=Jazz
TTITLE0=Hot Sauce Boss
TTITLE1=Temptation
TTITLE2=Earl Blows a Fuse
TTITLE3=Who Snuck the Wine in the Gravy
TTITLE4=Choppin' It Down
TTITLE5=Seven Steps
TTITLE6=Don't You Do It
TTITLE7=Rockin' and Reelin'
TTITLE8=Flamingo
TTITLE9=Sleep
TTITLE10=Always
TTITLE11=Lover Come Back to Me
TTITLE12=I Got Loaded
TTITLE13=Moonglow
TTITLE14=Smoke Gets in Your Eyes
TTITLE15=For You
TTITLE16=Cherokee
TTITLE17=Steam Whistle Jump
TTITLE18=What! No Pearls?
TTITLE19=Deep Purple
TTITLE20=Cracked Ice
TTITLE21=Exercise
TTITLE22=No Name Jive
TTITLE23=Woodchopper's Ball
TTITLE24=Back Beat Boogie
EXTD=
EXTT0=
EXTT1=
EXTT2=
EXTT3=
EXTT4=
EXTT5=
EXTT6=
EXTT7=
EXTT8=
EXTT9=
EXTT10=
EXTT11=
EXTT12=
EXTT13=
EXTT14=
EXTT15=
EXTT16=
EXTT17=
EXTT18=
EXTT19=
EXTT20=
EXTT21=
EXTT22=
EXTT23=
EXTT24=
PLAYORDER=
